HIERARCHY
ROOT root
{
	OFFSET 0.000000 0.000000 0.000000
	CHANNELS 6 Xposition Yposition Zposition Zrotation Yrotation Xrotation
	JOINT lhip
	{
		OFFSET 0.058581 -0.082280 -0.017664
		CHANNELS 3 Zrotation Yrotation Xrotation
		JOINT lknee
		{
			OFFSET 0.043451 -0.386469 0.008037
			CHANNELS 3 Zrotation Yrotation Xrotation
			JOINT lankle
			{
				OFFSET -0.014790 -0.426874 -0.037428
				CHANNELS 3 Zrotation Yrotation Xrotation
				JOINT ltoe
				{
					OFFSET 0.041054 -0.060286 0.122042
					CHANNELS 3 Zrotation Yrotation Xrotation
					End Site
					{
						OFFSET 0.000000 0.000000 0.000000
					}
				}
			}
		}
	}
	JOINT rhip
	{
		OFFSET -0.060310 -0.090513 -0.013543
		CHANNELS 3 Zrotation Yrotation Xrotation
		JOINT rknee
		{
			OFFSET -0.043257 -0.383688 -0.004843
			CHANNELS 3 Zrotation Yrotation Xrotation
			JOINT rankle
			{
				OFFSET 0.019056 -0.420046 -0.034562
				CHANNELS 3 Zrotation Yrotation Xrotation
				JOINT rtoe
				{
					OFFSET -0.034840 -0.062106 0.130323
					CHANNELS 3 Zrotation Yrotation Xrotation
					End Site
					{
						OFFSET 0.000000 0.000000 0.000000
					}
				}
			}
		}
	}
	JOINT lowerback
	{
		OFFSET 0.004439 0.124404 -0.038385
		CHANNELS 3 Zrotation Yrotation Xrotation
		JOINT upperback
		{
			OFFSET 0.004488 0.137956 0.026820
			CHANNELS 3 Zrotation Yrotation Xrotation
			JOINT chest
			{
				OFFSET -0.002265 0.056032 0.002855
				CHANNELS 3 Zrotation Yrotation Xrotation
				JOINT lowerneck
				{
					OFFSET -0.013390 0.211636 -0.033468
					CHANNELS 3 Zrotation Yrotation Xrotation
					JOINT upperneck
					{
						OFFSET 0.010113 0.088937 0.050410
						CHANNELS 3 Zrotation Yrotation Xrotation
						End Site
						{
							OFFSET 0.000000 0.000000 0.000000
						}
					}
				}
				JOINT lclavicle
				{
					OFFSET 0.071702 0.114000 -0.018898
					CHANNELS 3 Zrotation Yrotation Xrotation
					JOINT lshoulder
					{
						OFFSET 0.122921 0.045205 -0.019046
						CHANNELS 3 Zrotation Yrotation Xrotation
						JOINT lelbow
						{
							OFFSET 0.255332 -0.015649 -0.022946
							CHANNELS 3 Zrotation Yrotation Xrotation
							JOINT lwrist
							{
								OFFSET 0.265709 0.012698 -0.007375
								CHANNELS 3 Zrotation Yrotation Xrotation
								End Site
								{
									OFFSET 0.000000 0.000000 0.000000
								}
							}
						}
					}
				}
				JOINT rclavicle
				{
					OFFSET -0.082954 0.112472 -0.023707
					CHANNELS 3 Zrotation Yrotation Xrotation
					JOINT rshoulder
					{
						OFFSET -0.113228 0.046853 -0.008472
						CHANNELS 3 Zrotation Yrotation Xrotation
						JOINT relbow
						{
							OFFSET -0.260127 -0.014369 -0.031269
							CHANNELS 3 Zrotation Yrotation Xrotation
							JOINT rwrist
							{
								OFFSET -0.269108 0.006794 -0.006027
								CHANNELS 3 Zrotation Yrotation Xrotation
								End Site
								{
									OFFSET 0.000000 0.000000 0.000000
								}
							}
						}
					}
				}
			}
		}
	}
}
MOTION
Frames: 8
Frame Time: 0.033333
0.086691 0.241428 1.005117 97.314920 -2.282836 86.204844 -1.357096 -1.472015 4.307963 2.475279 -7.295675 5.623434 2.420900 14.860137 -9.304585 0.000000 -0.000000 0.000000 -4.128072 -6.913416 2.517855 -3.974533 -7.733643 5.432594 1.195040 -13.889246 -1.541753 0.000000 -0.000000 0.000000 -2.400939 4.979883 -4.436503 1.753541 -0.622978 19.669988 -2.930588 3.763948 -5.007060 -4.240103 -1.322213 16.170973 1.585826 -2.514694 3.695012 -23.575153 12.294847 -1.192337 -51.821171 -2.174887 20.836874 -7.118706 -60.033281 16.276557 -31.335590 -6.373440 7.048024 26.896328 1.586300 4.444076 55.271817 7.809511 18.553903 -0.764990 17.920702 -1.154303 29.523735 4.118858 -4.746535 
0.086729 0.240918 1.004932 97.339256 -2.203762 86.207841 -1.206974 -1.427083 4.248173 2.411435 -7.377223 5.681194 2.454294 14.909977 -9.366136 0.000000 -0.000000 0.000000 -3.993984 -6.824147 2.517513 -3.958829 -7.717645 5.456090 1.102591 -14.027967 -1.530291 0.000000 -0.000000 0.000000 -2.589322 4.974421 -4.096767 1.603564 -0.570835 19.317332 -2.987054 3.692567 -5.159494 -3.945030 -1.261775 16.066284 1.829127 -2.434408 3.975686 -23.988325 12.206462 -1.258792 -51.315467 -2.181933 20.818295 -6.690478 -59.726785 15.845570 -31.393206 -6.292785 7.324744 27.053686 1.546137 4.369089 55.152694 7.710393 18.664287 -0.502022 18.256543 -0.793271 29.737140 4.139069 -4.937627 
0.086850 0.240497 1.004778 97.512720 -2.116173 86.269822 -1.068186 -1.491085 4.111871 2.371481 -7.533287 5.740026 2.444223 14.906012 -9.332948 0.000000 -0.000000 0.000000 -3.865061 -6.850568 2.482257 -3.924539 -7.744780 5.476130 0.983174 -14.186767 -1.591144 0.000000 -0.000000 0.000000 -2.769024 4.963095 -4.011590 1.441005 -0.656371 19.219259 -3.015154 3.595052 -5.341384 -3.750477 -1.319211 15.987704 2.157259 -2.134358 4.228896 -24.550958 11.838459 -1.199648 -50.706427 -2.022423 20.655941 -5.935254 -59.505104 14.929761 -31.463800 -6.189668 7.582584 27.248994 1.706888 4.423161 54.973145 7.495985 18.648493 -0.342254 18.759450 -0.479573 30.035985 4.191432 -5.012592 
0.086949 0.240072 1.004683 97.638061 -2.028804 86.261417 -0.943952 -1.540202 4.030895 2.328975 -7.684196 5.862232 2.520929 15.008790 -9.367437 0.000000 -0.000000 0.000000 -3.713476 -6.787047 2.505776 -3.941441 -7.758846 5.507613 0.865326 -14.410039 -1.616609 0.000000 -0.000000 0.000000 -2.938360 4.939760 -3.839583 1.280162 -0.693860 19.324025 -3.068956 3.502396 -5.670015 -3.484974 -1.397978 15.664946 2.402200 -2.023501 4.654284 -25.133453 11.413935 -1.202196 -50.105884 -1.952249 20.522624 -5.080908 -59.289173 14.105679 -31.633289 -6.016120 8.073181 27.495966 1.839129 4.393696 54.744121 7.324812 18.615662 -0.167889 19.232519 -0.156614 30.445304 4.121945 -4.902489 
0.086869 0.239528 1.004511 97.823804 -1.883619 86.383497 -0.705367 -1.574823 3.677534 2.211278 -7.788601 6.181548 2.421932 14.955012 -9.487398 0.000000 -0.000000 0.000000 -3.485857 -6.814141 2.358261 -3.939863 -7.771422 5.562970 0.750633 -14.589504 -1.662148 0.000000 -0.000000 0.000000 -3.092154 4.876650 -3.620917 1.134420 -0.799886 18.906669 -3.069747 3.405472 -5.681008 -3.322459 -1.396093 15.581750 2.802565 -1.794514 4.778489 -25.565781 11.194126 -1.303721 -49.606737 -1.933827 20.444660 -4.785099 -58.903540 13.781888 -31.579222 -5.736459 8.542669 27.607811 1.853421 4.363942 54.593690 7.314858 18.542354 0.217103 19.564199 0.288292 30.535261 4.099466 -4.826047 
0.086683 0.238852 1.004445 98.052586 -1.763988 86.419335 -0.515596 -1.678956 3.438070 2.120788 -7.985374 6.469099 2.427033 14.967021 -9.577209 0.000000 -0.000000 0.000000 -3.304290 -6.886319 2.315089 -3.924206 -7.806864 5.605874 0.635513 -14.790514 -1.720919 0.000000 -0.000000 0.000000 -3.294502 4.879770 -3.350632 0.984656 -0.911529 18.647751 -3.050368 3.320208 -5.750463 -3.115013 -1.480395 15.425732 3.105956 -1.598750 5.023234 -25.974427 10.718190 -1.206408 -49.127974 -2.025475 20.388128 -4.193473 -58.550109 13.357880 -31.619050 -5.627478 8.735922 27.702311 2.024682 4.232606 54.544164 7.019989 18.527273 0.417028 20.017912 0.415972 30.717521 4.205392 -5.274003 
0.086468 0.238422 1.004351 98.195402 -1.652371 86.485794 -0.348908 -1.680102 3.206762 2.064873 -8.111937 6.658160 2.494953 14.978524 -9.604617 0.000000 -0.000000 0.000000 -3.146932 -6.848764 2.203860 -3.891537 -7.855478 5.689328 0.495166 -14.927776 -1.755568 0.000000 -0.000000 0.000000 -3.425456 4.862477 -3.185031 0.819703 -0.981465 18.720788 -3.104852 3.218622 -6.024585 -2.867638 -1.509855 15.304533 3.453326 -1.558367 5.123428 -26.481348 10.187190 -1.109506 -48.532587 -2.019112 20.201474 -3.335377 -58.200866 12.419886 -31.931912 -5.334242 9.283862 27.877989 2.347848 4.350911 54.437385 6.757242 18.490223 0.474431 20.513456 0.542858 31.022676 4.318777 -5.427146 
0.086410 0.238198 1.004257 98.352082 -1.577628 86.413699 -0.250643 -1.708192 3.134746 2.021950 -8.272250 6.881956 2.467903 14.975527 -9.717722 0.000000 -0.000000 0.000000 -3.069821 -6.854263 2.287698 -3.853414 -7.902184 5.745840 0.406169 -15.011656 -1.825211 0.000000 -0.000000 0.000000 -3.592863 4.849052 -2.936471 0.638209 -1.053303 18.873383 -3.112487 3.112976 -6.243341 -2.610291 -1.574928 15.021260 3.653181 -1.438959 5.433521 -26.902908 9.491436 -1.062802 -48.246547 -2.035389 20.066991 -2.020227 -57.462928 11.093408 -31.906074 -5.303652 9.687758 28.025528 2.752104 4.400810 54.355933 6.511017 18.446446 0.484554 20.897380 0.496131 31.140034 4.486538 -5.553200 
